<?xml version="1.0" standalone="no"?>
<!DOCTYPE svg PUBLIC "-//W3C//DTD SVG 20010904//EN"
 "http://www.w3.org/TR/2001/REC-SVG-20010904/DTD/svg10.dtd">
<svg version="1.0" xmlns="http://www.w3.org/2000/svg"
 width="959.000000pt" height="959.000000pt" viewBox="0 0 959.000000 959.000000"
 preserveAspectRatio="xMidYMid meet">
<metadata>
Created by potrace 1.11, written by Peter Selinger 2001-2013
</metadata>
<g transform="translate(0.000000,959.000000) scale(0.100000,-0.100000)"
fill="#000000" stroke="none">
<path d="M4498 9584 c-3 -2 -40 -6 -84 -9 -43 -3 -92 -7 -109 -9 -16 -3 -59
-7 -95 -11 -36 -3 -78 -9 -95 -12 -16 -3 -41 -7 -55 -9 -14 -1 -52 -7 -85 -14
-33 -6 -71 -13 -85 -16 -14 -3 -72 -16 -130 -29 -58 -14 -122 -27 -143 -29
-21 -3 -44 -9 -50 -15 -7 -5 -24 -11 -37 -13 -14 -2 -31 -7 -37 -11 -7 -5 -13
-6 -13 -3 0 3 -22 -3 -49 -14 -27 -10 -51 -16 -54 -14 -3 3 -15 0 -27 -6 -12
-6 -33 -14 -47 -16 -14 -3 -44 -14 -66 -24 -22 -11 -43 -17 -48 -15 -4 3 -10
1 -14 -5 -4 -6 -11 -8 -16 -5 -5 4 -9 2 -9 -4 0 -6 -7 -7 -17 -4 -12 5 -14 3
-8 -7 5 -9 4 -11 -3 -6 -6 4 -31 -2 -55 -13 -25 -11 -70 -30 -100 -41 -31 -12
-59 -26 -63 -31 -3 -5 -10 -7 -15 -3 -6 3 -18 -1 -27 -9 -9 -9 -29 -19 -44
-22 -16 -4 -28 -11 -28 -17 0 -5 -4 -7 -9 -3 -5 3 -12 1 -16 -5 -4 -6 -10 -8
-15 -5 -5 3 -14 -1 -22 -8 -16 -15 -81 -47 -98 -47 -6 0 -8 -5 -4 -12 5 -7 2
-9 -8 -6 -8 4 -22 -2 -31 -13 -9 -10 -23 -19 -31 -19 -16 0 -115 -50 -100 -50
5 -1 -14 -11 -43 -23 -28 -12 -60 -30 -70 -39 -10 -9 -36 -23 -57 -32 -22 -9
-36 -19 -33 -23 4 -3 -15 -17 -41 -31 -26 -14 -49 -28 -52 -31 -6 -7 -39 -28
-59 -38 -8 -3 -22 -14 -32 -22 -33 -30 -49 -42 -49 -37 0 3 -14 -8 -32 -24
-17 -16 -34 -27 -36 -25 -3 2 -13 -7 -24 -20 -10 -14 -23 -24 -28 -22 -12 3
-48 -22 -85 -60 -17 -17 -47 -41 -66 -52 -19 -12 -30 -21 -25 -21 5 0 -1 -9
-14 -20 -12 -11 -27 -17 -33 -13 -6 3 -7 1 -3 -6 4 -6 0 -14 -11 -18 -9 -4
-30 -20 -45 -35 -15 -16 -28 -26 -28 -22 0 4 -10 -6 -22 -22 -12 -16 -27 -32
-33 -36 -16 -10 -275 -266 -275 -272 0 -2 -25 -30 -55 -61 -30 -32 -55 -61
-55 -65 0 -4 -15 -23 -33 -42 -17 -18 -50 -55 -72 -83 -21 -27 -44 -53 -50
-57 -5 -4 -6 -8 -2 -8 4 0 -3 -11 -17 -24 -15 -13 -26 -30 -26 -37 0 -8 -9
-21 -20 -29 -11 -8 -20 -20 -20 -26 0 -7 -3 -14 -7 -16 -11 -4 -53 -65 -53
-77 0 -5 -6 -11 -13 -14 -7 -2 -23 -25 -35 -51 -13 -25 -27 -46 -32 -46 -4 0
-13 -13 -19 -30 -5 -16 -15 -30 -20 -30 -6 0 -13 -11 -17 -25 -3 -14 -9 -25
-13 -25 -4 0 -13 -16 -21 -35 -7 -19 -19 -36 -27 -39 -7 -3 -13 -10 -13 -15 0
-5 -15 -36 -34 -69 -19 -33 -32 -62 -30 -65 3 -2 -2 -10 -11 -17 -8 -7 -15
-19 -15 -26 0 -8 -4 -14 -10 -14 -5 0 -7 -7 -4 -15 4 -8 1 -15 -5 -15 -6 0
-10 -3 -9 -7 2 -12 -14 -46 -29 -61 -7 -7 -13 -20 -13 -29 0 -9 -8 -22 -17
-30 -11 -9 -12 -11 -3 -7 12 6 11 3 -2 -12 -9 -10 -16 -22 -15 -25 1 -3 -5
-21 -14 -40 -49 -102 -78 -166 -81 -179 -2 -8 -6 -17 -9 -20 -4 -3 -9 -16 -10
-30 -2 -14 -10 -31 -16 -38 -7 -7 -13 -22 -13 -32 0 -10 -5 -22 -10 -25 -6 -4
-8 -10 -5 -15 3 -5 1 -17 -5 -27 -5 -10 -22 -52 -36 -93 -24 -71 -28 -86 -38
-127 -3 -10 -11 -37 -20 -60 -8 -24 -13 -43 -11 -43 2 0 -3 -16 -11 -35 -8
-19 -12 -35 -9 -35 3 0 1 -9 -5 -20 -6 -11 -11 -36 -12 -55 -1 -20 -5 -38 -10
-41 -4 -3 -6 -10 -3 -15 4 -5 2 -9 -3 -9 -5 0 -10 -12 -10 -27 -2 -27 -9 -68
-12 -68 -1 0 -3 -9 -5 -20 -2 -11 -7 -36 -11 -55 -4 -19 -8 -46 -10 -60 -3
-26 -8 -56 -20 -130 -13 -80 -23 -156 -29 -225 -2 -22 -7 -76 -11 -120 -10
-107 -11 -618 -1 -725 4 -47 9 -112 12 -145 2 -33 7 -73 10 -90 3 -16 8 -46
10 -65 2 -19 7 -55 10 -80 4 -25 8 -56 10 -70 2 -14 4 -25 5 -25 2 0 4 -9 5
-20 2 -11 8 -45 15 -75 6 -30 13 -64 15 -75 2 -11 10 -47 18 -80 9 -33 18 -76
21 -95 3 -19 12 -53 20 -75 9 -22 15 -50 16 -62 0 -12 4 -24 9 -27 10 -6 26
-73 22 -93 -1 -7 3 -13 9 -13 5 0 10 -9 10 -21 0 -11 5 -30 12 -42 7 -12 13
-26 13 -32 1 -11 10 -36 31 -83 8 -18 14 -38 14 -45 1 -7 9 -30 20 -52 11 -22
19 -48 20 -57 0 -9 5 -20 10 -23 6 -4 8 -11 5 -16 -4 -5 -2 -9 3 -9 6 0 13
-15 16 -34 4 -19 11 -36 16 -38 5 -2 11 -12 13 -23 6 -29 18 -57 38 -86 10
-14 16 -29 12 -33 -3 -3 -1 -6 6 -6 7 0 11 -5 9 -12 -3 -7 6 -28 19 -47 13
-18 23 -40 23 -47 0 -8 5 -14 11 -14 5 0 7 -5 3 -11 -3 -6 -2 -14 3 -18 5 -3
27 -40 47 -81 55 -110 80 -155 89 -158 4 -2 7 -8 7 -14 0 -6 8 -17 18 -25 10
-9 11 -12 2 -7 -8 4 -5 -4 7 -18 13 -13 23 -29 23 -34 0 -5 9 -17 20 -27 11
-9 20 -26 20 -36 0 -11 6 -24 13 -28 7 -4 20 -20 29 -34 9 -14 24 -34 33 -43
9 -9 13 -16 9 -16 -4 0 1 -7 12 -16 10 -8 12 -12 4 -8 -13 7 -13 6 0 -12 8
-10 21 -23 27 -27 7 -4 13 -12 13 -17 0 -6 8 -18 18 -28 9 -10 24 -29 32 -42
8 -13 25 -34 37 -47 12 -13 19 -23 16 -23 -3 0 4 -8 15 -19 12 -10 19 -21 16
-24 -3 -3 4 -10 15 -17 12 -6 21 -15 21 -21 0 -5 12 -22 27 -37 49 -49 83 -91
83 -103 0 -5 5 -7 10 -4 6 3 10 0 10 -7 0 -7 10 -22 23 -33 13 -11 33 -35 46
-53 12 -18 27 -30 32 -26 5 3 8 2 7 -3 -2 -4 44 -55 102 -112 91 -89 130 -126
245 -230 11 -10 42 -35 70 -57 27 -21 63 -53 80 -70 16 -18 44 -39 60 -47 17
-8 43 -29 59 -46 16 -17 32 -28 36 -26 4 3 19 -6 34 -20 14 -13 26 -21 26 -17
0 4 4 2 8 -3 4 -6 18 -17 32 -26 24 -16 25 -15 57 27 18 23 33 46 33 50 0 4 6
15 14 23 7 9 24 43 37 76 12 33 28 67 35 75 7 8 17 32 22 53 14 50 68 102 123
118 60 17 229 14 309 -5 36 -9 79 -16 95 -16 17 0 36 -5 43 -12 16 -16 32 30
32 97 0 45 6 64 35 109 19 29 40 60 47 68 17 18 36 48 47 73 5 11 29 43 55 72
25 28 46 54 46 58 0 4 11 16 25 27 14 11 25 24 25 30 0 8 92 128 137 178 7 8
46 56 87 105 41 50 99 117 130 149 31 33 56 68 56 78 0 18 -36 57 -129 140
-22 21 -41 40 -41 44 0 3 -17 23 -37 43 -21 21 -49 53 -62 72 -14 19 -30 38
-38 42 -7 4 -13 16 -13 26 0 10 -11 23 -24 31 -14 7 -27 22 -30 34 -3 12 -30
55 -61 95 -30 41 -55 82 -55 92 0 9 -6 19 -13 22 -6 2 -18 22 -26 43 -7 22
-22 47 -32 57 -11 10 -19 24 -19 31 0 8 -7 16 -15 20 -8 3 -15 15 -15 26 0 26
-43 119 -67 145 -10 11 -17 27 -15 36 1 8 -6 24 -18 34 -11 10 -20 30 -20 45
0 41 -25 45 -119 21 -65 -17 -128 -4 -186 37 -27 20 -54 42 -58 49 -5 8 -12
11 -18 8 -5 -4 -9 0 -9 7 0 15 -58 72 -82 81 -9 3 -25 19 -34 34 -10 15 -24
33 -31 39 -25 21 -153 199 -175 244 -12 25 -28 51 -35 58 -7 7 -13 22 -13 32
0 10 -4 21 -9 25 -20 12 -49 81 -57 135 -1 14 -14 70 -26 126 -24 102 -29 257
-13 359 4 22 7 52 6 67 0 15 4 30 9 33 6 4 10 19 10 34 0 16 7 34 15 41 8 7
17 27 21 46 7 39 120 160 157 169 12 3 58 7 102 8 l80 2 0 55 c0 30 -2 60 -5
65 -2 6 -6 33 -7 60 -1 28 -9 86 -18 130 -9 44 -14 90 -12 103 3 13 -1 43 -8
66 -15 51 -13 678 3 796 5 41 10 84 10 95 0 34 22 149 33 168 5 10 7 21 5 26
-3 4 10 70 29 147 19 76 35 149 35 161 0 12 4 23 9 25 5 2 11 17 14 33 7 41
17 65 28 65 5 0 9 18 9 39 0 22 4 42 9 45 7 4 17 40 21 71 1 11 59 126 69 139
7 8 13 22 15 32 2 11 18 45 35 78 17 32 31 62 31 68 0 5 7 19 15 31 9 12 54
81 100 152 47 72 98 145 115 164 16 18 35 46 42 62 7 16 21 32 30 35 9 3 20
13 23 24 3 10 44 58 91 107 47 48 89 92 92 96 21 24 101 91 124 103 15 8 31
20 35 28 4 7 33 30 63 52 30 21 59 44 63 51 4 7 15 13 24 13 9 0 28 12 44 28
44 43 55 51 86 58 15 4 42 18 59 31 17 12 40 23 51 23 11 0 26 7 33 15 7 8 20
15 29 15 9 0 25 7 35 15 11 8 28 15 39 15 10 0 33 7 50 15 42 19 116 45 147
51 14 3 33 7 43 10 75 23 550 18 602 -6 11 -5 61 -16 110 -25 50 -9 99 -20
110 -24 11 -5 43 -13 70 -19 46 -9 115 -34 190 -68 17 -8 45 -17 62 -20 18 -4
38 -13 44 -20 6 -8 17 -14 24 -14 14 0 53 -20 115 -60 25 -16 62 -38 82 -49
53 -30 123 -78 138 -96 7 -8 17 -15 22 -15 10 0 27 -15 110 -92 22 -21 44 -38
49 -38 5 0 9 -7 9 -15 0 -9 13 -24 30 -33 16 -9 30 -22 30 -28 0 -6 11 -17 25
-24 13 -7 36 -31 51 -54 29 -45 37 -55 83 -104 17 -19 31 -37 31 -42 0 -4 7
-10 15 -14 8 -3 15 -12 15 -21 0 -8 8 -23 18 -33 24 -25 92 -129 92 -142 0
-10 28 -58 40 -70 8 -8 27 -41 61 -105 17 -33 35 -64 40 -69 5 -6 9 -17 9 -25
0 -8 8 -33 19 -55 26 -58 35 -79 36 -92 0 -6 6 -19 14 -28 8 -9 17 -33 22 -54
6 -30 35 -114 72 -212 3 -8 8 -28 12 -45 35 -165 65 -296 69 -303 2 -4 7 -34
10 -67 7 -71 16 -116 25 -130 3 -5 7 -35 7 -65 3 -101 15 -274 20 -282 3 -4 7
-115 10 -245 6 -304 7 -316 19 -320 6 -2 28 12 50 31 54 48 111 63 181 46 61
-15 74 -27 119 -116 17 -32 36 -65 43 -73 8 -8 11 -22 9 -33 -3 -10 1 -24 8
-31 7 -8 16 -49 20 -93 4 -43 13 -98 21 -121 9 -28 12 -65 8 -105 -5 -55 -5
-83 -2 -175 0 -10 -6 -47 -12 -83 -7 -36 -12 -76 -11 -89 1 -27 -24 -140 -42
-186 -7 -16 -12 -32 -13 -35 0 -3 -4 -13 -8 -23 -5 -9 -6 -23 -3 -31 3 -8 0
-20 -8 -26 -7 -6 -18 -33 -24 -60 -6 -27 -20 -69 -30 -92 -11 -24 -31 -76 -45
-117 -15 -41 -33 -85 -41 -97 -8 -13 -15 -28 -15 -33 0 -5 -16 -37 -36 -70
-62 -104 -137 -142 -232 -116 -26 6 -53 10 -59 8 -7 -3 -20 3 -29 11 -25 25
-44 19 -60 -20 -13 -32 -32 -114 -38 -169 -1 -11 -7 -29 -13 -40 -6 -11 -13
-42 -17 -70 -3 -27 -15 -81 -27 -120 -11 -38 -29 -99 -40 -135 -11 -36 -19
-73 -19 -82 0 -9 -5 -20 -11 -24 -6 -3 -9 -15 -6 -25 3 -10 -1 -23 -7 -28 -7
-6 -18 -30 -25 -53 -18 -59 -56 -150 -97 -231 -19 -37 -34 -72 -34 -78 0 -5
-9 -19 -20 -31 -10 -11 -26 -36 -35 -54 -8 -18 -24 -36 -35 -39 -11 -4 -20
-13 -20 -20 0 -8 -30 -48 -66 -90 -36 -42 -67 -81 -68 -88 -1 -6 -10 -27 -20
-46 l-18 -34 25 7 c25 6 48 -3 102 -39 50 -33 69 -45 93 -55 12 -5 22 -14 22
-19 0 -5 8 -11 18 -15 9 -3 26 -11 36 -18 11 -7 43 -27 72 -45 84 -52 146
-119 212 -227 9 -15 27 -44 40 -63 12 -18 22 -38 22 -42 0 -5 20 -52 45 -104
25 -53 45 -100 45 -105 0 -5 9 -30 20 -55 17 -39 27 -48 58 -56 79 -20 409
-84 432 -84 8 0 20 -3 25 -7 6 -4 29 -8 53 -9 24 0 51 -5 60 -10 9 -5 40 -12
67 -16 60 -10 143 -46 190 -85 20 -16 57 -87 61 -115 1 -11 6 -47 10 -79 4
-36 14 -66 26 -78 18 -18 48 -25 48 -10 0 4 19 20 43 35 23 15 50 35 58 45 9
9 29 26 44 37 47 33 128 103 190 163 19 17 37 32 42 32 5 0 13 10 18 23 6 12
16 22 22 22 7 0 26 15 42 32 17 18 35 33 41 33 6 0 9 4 6 8 -6 10 48 62 65 62
7 0 10 3 7 6 -4 3 13 25 37 48 23 24 50 55 60 70 10 14 24 26 33 26 8 0 13 3
9 6 -3 3 5 16 17 28 13 11 25 26 27 31 2 6 8 9 12 7 5 -1 6 2 3 7 -3 5 5 16
19 25 14 9 24 20 23 24 -4 12 26 52 39 52 6 0 15 9 18 20 3 11 11 20 16 20 5
0 9 7 9 15 0 7 8 19 18 24 9 6 13 11 8 11 -6 0 -1 8 10 19 43 41 100 120 96
133 -1 4 9 15 23 24 14 9 25 21 25 26 0 5 6 16 13 23 30 35 37 45 30 45 -4 0
-3 4 2 8 11 7 49 63 50 72 0 3 10 20 23 37 13 18 21 33 17 33 -3 0 3 10 15 22
11 12 20 27 20 33 0 7 9 20 20 30 11 10 20 25 20 33 0 8 11 30 25 47 13 18 21
35 18 39 -4 3 -1 6 6 6 7 0 10 4 7 9 -4 5 -1 11 4 13 6 2 12 10 13 18 2 8 10
26 19 40 8 14 26 49 39 78 12 28 26 52 31 52 4 0 8 9 8 20 0 11 5 20 11 20 6
0 8 7 5 16 -3 9 -2 12 5 9 6 -4 10 -1 8 6 -3 24 1 37 14 51 17 18 34 55 48
105 7 24 16 43 21 43 4 0 8 4 8 9 0 5 5 22 12 38 6 15 12 31 13 36 2 4 3 8 5
10 1 1 4 16 6 32 3 17 9 32 15 33 5 2 9 10 9 17 0 8 5 26 12 42 14 34 13 31
22 68 4 17 11 39 16 50 10 24 51 162 52 172 0 5 4 13 9 19 5 6 10 23 11 38 1
14 5 26 9 26 3 0 6 6 6 13 0 6 6 32 12 57 7 25 14 55 16 67 2 12 6 26 9 31 3
5 6 26 7 48 1 21 5 44 8 49 3 6 6 15 6 20 1 14 17 106 22 130 3 11 6 34 8 50
3 17 8 46 11 65 4 19 9 46 10 60 1 14 5 45 9 70 5 43 8 68 21 210 17 175 4
895 -16 895 -1 0 -3 22 -6 49 -2 27 -6 60 -9 75 -7 33 -14 84 -20 136 -2 22
-4 40 -5 40 -1 0 -3 11 -5 25 -2 14 -9 48 -15 75 -6 28 -11 58 -11 68 0 9 -4
17 -8 17 -4 0 -9 12 -9 28 -2 32 -4 42 -22 102 -16 53 -16 56 -24 97 -3 18
-10 43 -16 57 -5 15 -7 26 -4 26 4 0 2 6 -3 13 -6 6 -16 37 -24 67 -7 30 -18
58 -24 62 -5 4 -7 8 -3 8 3 0 -4 29 -17 65 -13 36 -24 68 -25 70 -1 14 -6 28
-24 69 -10 22 -20 49 -22 60 -2 11 -11 36 -21 56 -9 19 -18 40 -19 46 -1 6
-18 44 -37 85 -36 77 -45 100 -43 110 0 4 -6 15 -15 25 -9 11 -21 34 -28 53
-6 19 -23 55 -38 80 -15 25 -28 52 -29 58 -1 7 -9 20 -18 29 -9 8 -16 19 -16
23 0 4 -9 18 -20 31 -11 12 -17 26 -15 30 3 4 -2 13 -10 20 -8 7 -15 18 -15
25 0 8 -11 27 -25 43 -13 16 -22 32 -18 35 3 4 -2 9 -11 13 -9 3 -16 12 -16
20 0 8 -4 14 -9 14 -5 0 -12 11 -15 25 -3 13 -16 34 -29 46 -12 12 -16 18 -8
14 9 -5 7 1 -4 19 -10 14 -21 26 -26 26 -5 0 -9 7 -9 15 0 8 -5 15 -11 15 -5
0 -15 14 -20 30 -6 17 -15 30 -20 30 -5 0 -16 15 -25 33 -9 17 -23 36 -30 40
-8 4 -14 14 -14 22 0 8 -9 19 -20 25 -11 6 -20 17 -20 25 0 8 -4 15 -10 15 -5
0 -10 7 -10 15 0 8 -5 15 -11 15 -5 0 -7 5 -4 11 4 6 -2 13 -14 16 -11 3 -18
9 -15 14 3 5 -2 12 -10 15 -9 3 -16 12 -16 18 0 7 -10 22 -22 33 -13 11 -33
34 -45 49 -12 16 -44 53 -72 82 -29 28 -49 52 -47 52 3 0 -5 10 -17 23 -12 13
-25 22 -29 20 -5 -2 -8 1 -8 8 0 14 -217 229 -232 229 -5 0 -6 5 -3 10 3 6 3
10 -2 10 -8 0 -62 44 -115 95 -15 14 -30 27 -34 28 -4 1 -27 21 -52 45 -25 23
-47 40 -50 37 -2 -2 -22 13 -43 34 -21 22 -39 37 -42 35 -2 -2 -14 7 -27 21
-13 14 -30 25 -37 25 -8 0 -16 7 -19 15 -4 8 -10 15 -15 15 -6 0 -15 5 -22 10
-34 30 -152 110 -189 130 -24 12 -53 31 -65 43 -13 11 -23 17 -23 13 0 -4 -7
-1 -15 6 -32 29 -45 38 -53 38 -5 0 -28 14 -50 30 -23 17 -45 30 -49 30 -12 0
-106 51 -125 68 -10 8 -18 11 -18 7 0 -4 -8 -1 -19 9 -10 9 -28 19 -41 21 -12
2 -33 11 -46 20 -13 8 -30 15 -38 15 -8 0 -16 5 -18 11 -2 5 -10 11 -18 13
-25 5 -54 19 -78 37 -13 10 -30 15 -38 12 -8 -3 -14 0 -14 6 0 6 -9 11 -19 11
-11 0 -23 5 -26 10 -4 6 -11 8 -16 5 -5 -4 -9 -1 -9 4 0 6 -7 11 -16 11 -8 0
-34 8 -57 19 -23 10 -57 22 -74 26 -18 3 -33 11 -33 16 0 5 -3 8 -7 8 -5 -1
-10 0 -13 1 -3 1 -12 3 -20 5 -8 1 -40 12 -70 24 -30 11 -64 22 -75 24 -42 8
-80 20 -92 29 -7 5 -17 7 -23 3 -5 -3 -10 -2 -10 3 0 8 -6 10 -50 14 -11 1
-20 7 -20 12 0 5 -3 7 -6 3 -3 -3 -25 1 -47 9 -23 9 -60 17 -82 20 -22 3 -60
11 -85 18 -25 8 -52 14 -60 15 -16 0 -55 8 -55 12 0 3 -104 18 -152 21 -7 1
-13 4 -13 8 0 3 -15 7 -32 7 -18 1 -51 4 -73 7 -22 4 -60 8 -85 11 -25 2 -45
5 -45 6 0 1 -18 3 -40 5 -22 2 -65 6 -95 9 -69 7 -686 15 -692 9z"/>
<path d="M6945 5040 c-3 -5 -1 -10 4 -10 6 0 11 5 11 10 0 6 -2 10 -4 10 -3 0
-8 -4 -11 -10z"/>
<path d="M6795 4921 c-3 -5 -1 -12 5 -16 5 -3 10 1 10 9 0 18 -6 21 -15 7z"/>
<path d="M6860 4800 c-9 -6 -10 -10 -3 -10 6 0 15 5 18 10 8 12 4 12 -15 0z"/>
<path d="M6883 4706 c-26 -12 -30 -26 -9 -26 13 0 43 28 35 33 -2 2 -14 -2
-26 -7z"/>
<path d="M6860 4650 c0 -5 5 -10 11 -10 5 0 7 5 4 10 -3 6 -8 10 -11 10 -2 0
-4 -4 -4 -10z"/>
<path d="M2255 4610 c-3 -5 -2 -10 4 -10 5 0 13 5 16 10 3 6 2 10 -4 10 -5 0
-13 -4 -16 -10z"/>
<path d="M2210 4565 c0 -8 7 -15 15 -15 9 0 12 6 9 15 -4 8 -10 15 -15 15 -5
0 -9 -7 -9 -15z"/>
<path d="M2216 4492 c-3 -5 -7 -20 -10 -35 -4 -24 -3 -25 14 -14 13 7 15 14 8
18 -6 4 -8 14 -5 23 7 17 2 22 -7 8z"/>
<path d="M2255 4479 c-4 -6 -5 -13 -2 -16 7 -7 27 6 27 18 0 12 -17 12 -25 -2z"/>
<path d="M2360 4479 c0 -5 5 -7 10 -4 6 3 10 8 10 11 0 2 -4 4 -10 4 -5 0 -10
-5 -10 -11z"/>
<path d="M2235 4430 c3 -5 8 -10 11 -10 2 0 4 5 4 10 0 6 -5 10 -11 10 -5 0
-7 -4 -4 -10z"/>
<path d="M2135 4420 c3 -5 8 -10 11 -10 2 0 4 5 4 10 0 6 -5 10 -11 10 -5 0
-7 -4 -4 -10z"/>
<path d="M2300 4401 c0 -7 -5 -9 -12 -5 -7 5 -8 3 -3 -5 5 -9 10 -10 18 -2 6
6 8 14 4 18 -4 3 -7 1 -7 -6z"/>
<path d="M2416 3985 c-4 -13 -2 -14 14 -5 23 13 26 20 6 20 -8 0 -16 -7 -20
-15z"/>
<path d="M5630 2091 c0 -5 5 -13 10 -16 6 -3 10 -2 10 4 0 5 -4 13 -10 16 -5
3 -10 2 -10 -4z"/>
<path d="M5555 2050 c3 -5 8 -10 11 -10 2 0 4 5 4 10 0 6 -5 10 -11 10 -5 0
-7 -4 -4 -10z"/>
<path d="M5620 2019 c0 -5 4 -9 9 -9 5 0 16 -3 25 -6 9 -3 16 -2 16 4 0 5 -11
12 -25 14 -14 3 -25 1 -25 -3z"/>
<path d="M5700 2010 c0 -5 5 -10 10 -10 6 0 10 5 10 10 0 6 -4 10 -10 10 -5 0
-10 -4 -10 -10z"/>
<path d="M5810 1914 c0 -6 6 -16 13 -23 10 -11 10 -14 0 -18 -7 -3 -13 -9 -13
-14 0 -15 15 -10 27 10 10 16 8 22 -8 37 -10 9 -19 13 -19 8z"/>
<path d="M3860 1899 c0 -5 5 -7 10 -4 6 3 10 8 10 11 0 2 -4 4 -10 4 -5 0 -10
-5 -10 -11z"/>
<path d="M5495 1900 c-3 -5 -2 -10 4 -10 5 0 13 5 16 10 3 6 2 10 -4 10 -5 0
-13 -4 -16 -10z"/>
<path d="M4265 1880 c3 -5 8 -10 11 -10 2 0 4 5 4 10 0 6 -5 10 -11 10 -5 0
-7 -4 -4 -10z"/>
<path d="M4040 1855 c0 -9 5 -15 11 -13 6 2 11 8 11 13 0 5 -5 11 -11 13 -6 2
-11 -4 -11 -13z"/>
<path d="M3895 1850 c3 -5 8 -10 11 -10 2 0 4 5 4 10 0 6 -5 10 -11 10 -5 0
-7 -4 -4 -10z"/>
<path d="M5866 1844 c-4 -9 -4 -19 -1 -22 2 -3 7 3 11 12 4 9 4 19 1 22 -2 3
-7 -3 -11 -12z"/>
<path d="M4990 1830 c0 -5 5 -10 11 -10 5 0 7 5 4 10 -3 6 -8 10 -11 10 -2 0
-4 -4 -4 -10z"/>
<path d="M5353 1825 c0 -18 19 -15 25 3 2 7 -3 12 -10 12 -8 0 -15 -7 -15 -15z"/>
<path d="M4921 1804 c0 -11 3 -14 6 -6 3 7 2 16 -1 19 -3 4 -6 -2 -5 -13z"/>
<path d="M4083 1791 c-8 -13 -9 -22 -3 -26 11 -7 24 18 18 35 -2 6 -9 1 -15
-9z"/>
<path d="M4817 1789 c4 -13 8 -18 11 -10 2 7 -1 18 -6 23 -8 8 -9 4 -5 -13z"/>
<path d="M4860 1799 c0 -5 5 -7 10 -4 6 3 10 8 10 11 0 2 -4 4 -10 4 -5 0 -10
-5 -10 -11z"/>
<path d="M5136 1795 c-4 -10 1 -15 16 -15 17 0 18 2 8 15 -7 8 -14 15 -15 15
-2 0 -5 -7 -9 -15z"/>
<path d="M4526 1791 c-4 -7 -5 -15 -2 -18 9 -9 19 4 14 18 -4 11 -6 11 -12 0z"/>
<path d="M5830 1790 c0 -5 5 -10 10 -10 6 0 10 5 10 10 0 6 -4 10 -10 10 -5 0
-10 -4 -10 -10z"/>
<path d="M4025 1780 c-3 -5 3 -10 14 -10 12 0 21 5 21 10 0 6 -6 10 -14 10 -8
0 -18 -4 -21 -10z"/>
<path d="M5521 1764 c0 -11 3 -14 6 -6 3 7 2 16 -1 19 -3 4 -6 -2 -5 -13z"/>
<path d="M5805 1755 c0 -14 5 -21 13 -18 6 3 12 9 12 13 0 4 -6 12 -12 18 -10
8 -13 5 -13 -13z"/>
<path d="M5760 1760 c0 -5 5 -10 10 -10 6 0 10 5 10 10 0 6 -4 10 -10 10 -5 0
-10 -4 -10 -10z"/>
<path d="M4597 1746 c-3 -8 2 -20 11 -28 11 -9 14 -10 8 0 -4 6 -2 12 3 12 6
0 11 7 11 15 0 19 -26 20 -33 1z"/>
<path d="M4810 1744 c0 -8 5 -12 10 -9 6 4 8 11 5 16 -9 14 -15 11 -15 -7z"/>
<path d="M4945 1750 c3 -5 10 -10 16 -10 5 0 9 5 9 10 0 6 -7 10 -16 10 -8 0
-12 -4 -9 -10z"/>
<path d="M5351 1744 c0 -11 3 -14 6 -6 3 7 2 16 -1 19 -3 4 -6 -2 -5 -13z"/>
<path d="M4095 1730 c3 -5 11 -10 16 -10 6 0 7 5 4 10 -3 6 -11 10 -16 10 -6
0 -7 -4 -4 -10z"/>
<path d="M4481 1724 c0 -11 3 -14 6 -6 3 7 2 16 -1 19 -3 4 -6 -2 -5 -13z"/>
<path d="M5680 1729 c0 -3 5 -21 11 -39 10 -28 13 -30 22 -15 7 13 4 22 -12
38 -11 12 -21 19 -21 16z"/>
<path d="M4853 1705 c0 -11 4 -12 14 -4 7 6 13 13 13 15 0 2 -6 4 -13 4 -8 0
-14 -7 -14 -15z"/>
<path d="M4890 1704 c0 -8 5 -12 10 -9 6 4 8 11 5 16 -9 14 -15 11 -15 -7z"/>
<path d="M5130 1709 c0 -5 5 -7 10 -4 6 3 10 8 10 11 0 2 -4 4 -10 4 -5 0 -10
-5 -10 -11z"/>
<path d="M5220 1710 c0 -5 10 -10 23 -10 18 0 19 2 7 10 -19 13 -30 13 -30 0z"/>
<path d="M3936 1697 c3 -10 9 -15 12 -12 3 3 0 11 -7 18 -10 9 -11 8 -5 -6z"/>
<path d="M4660 1691 c0 -14 -4 -20 -12 -15 -7 5 -8 3 -3 -5 6 -10 11 -9 23 3
13 12 14 19 4 28 -9 9 -12 7 -12 -11z"/>
<path d="M5771 1694 c0 -11 3 -14 6 -6 3 7 2 16 -1 19 -3 4 -6 -2 -5 -13z"/>
<path d="M4795 1690 c4 -6 11 -8 16 -5 14 9 11 15 -7 15 -8 0 -12 -5 -9 -10z"/>
<path d="M5190 1685 c0 -8 4 -15 10 -15 5 0 7 7 4 15 -4 8 -8 15 -10 15 -2 0
-4 -7 -4 -15z"/>
<path d="M4364 1673 c2 -10 7 -17 12 -15 13 3 11 25 -3 29 -6 2 -10 -4 -9 -14z"/>
<path d="M4910 1676 c0 -9 7 -16 16 -16 17 0 14 22 -4 28 -7 2 -12 -3 -12 -12z"/>
<path d="M4105 1670 c-9 -14 24 -25 36 -11 5 6 6 9 3 6 -4 -3 -13 0 -20 6 -8
7 -14 7 -19 -1z"/>
<path d="M5461 1664 c0 -11 3 -14 6 -6 3 7 2 16 -1 19 -3 4 -6 -2 -5 -13z"/>
<path d="M5610 1670 c0 -5 5 -10 11 -10 5 0 7 5 4 10 -3 6 -8 10 -11 10 -2 0
-4 -4 -4 -10z"/>
<path d="M5750 1646 c0 -8 5 -18 10 -21 6 -3 10 3 10 14 0 12 -4 21 -10 21 -5
0 -10 -6 -10 -14z"/>
<path d="M4480 1641 c0 -6 5 -13 10 -16 6 -3 10 1 10 9 0 9 -4 16 -10 16 -5 0
-10 -4 -10 -9z"/>
<path d="M4133 1633 c-18 -7 -16 -23 2 -23 8 0 15 7 15 15 0 8 -1 15 -2 14 -2
0 -9 -3 -15 -6z"/>
<path d="M4322 1620 c-16 -26 -15 -29 8 -23 11 3 20 14 20 24 0 25 -12 24 -28
-1z"/>
<path d="M5495 1630 c-4 -6 -1 -18 6 -26 10 -12 8 -17 -7 -28 -10 -8 -17 -16
-14 -19 3 -2 14 5 26 17 18 18 19 24 9 44 -8 15 -15 20 -20 12z"/>
<path d="M4736 1623 c-11 -11 -6 -23 9 -23 8 0 15 4 15 9 0 13 -16 22 -24 14z"/>
<path d="M5245 1620 c3 -5 8 -10 11 -10 2 0 4 5 4 10 0 6 -5 10 -11 10 -5 0
-7 -4 -4 -10z"/>
<path d="M4250 1601 c0 -5 -8 -12 -17 -14 -11 -3 -7 -5 10 -6 18 -1 27 4 27
14 0 8 -4 15 -10 15 -5 0 -10 -4 -10 -9z"/>
<path d="M4550 1606 c0 -14 41 -25 62 -17 14 6 17 10 8 11 -8 1 -27 4 -42 6
-16 3 -28 2 -28 0z"/>
<path d="M5631 1597 c15 -17 49 -14 49 4 0 14 -18 11 -23 -3 -3 -10 -8 -10
-23 1 -18 14 -18 14 -3 -2z"/>
<path d="M5205 1590 c3 -5 8 -10 11 -10 2 0 4 5 4 10 0 6 -5 10 -11 10 -5 0
-7 -4 -4 -10z"/>
<path d="M5835 1590 c-3 -5 1 -10 9 -10 9 0 16 5 16 10 0 6 -4 10 -9 10 -6 0
-13 -4 -16 -10z"/>
<path d="M4470 1575 c0 -8 4 -15 10 -15 5 0 7 7 4 15 -4 8 -8 15 -10 15 -2 0
-4 -7 -4 -15z"/>
<path d="M4645 1571 c3 -14 -1 -18 -16 -14 -11 3 -19 0 -19 -7 0 -22 45 -6 48
18 2 12 -1 22 -7 22 -5 0 -8 -8 -6 -19z"/>
<path d="M5356 1581 c-4 -5 3 -7 14 -4 23 6 26 13 6 13 -8 0 -17 -4 -20 -9z"/>
<path d="M5245 1539 c-17 -32 -15 -46 4 -34 6 3 9 11 5 16 -3 6 4 19 17 30 17
15 19 19 6 19 -9 0 -24 -14 -32 -31z"/>
<path d="M5050 1550 c0 -13 28 -25 38 -16 3 4 0 11 -8 16 -20 13 -30 12 -30 0z"/>
<path d="M5300 1550 c0 -5 5 -10 10 -10 6 0 10 5 10 10 0 6 -4 10 -10 10 -5 0
-10 -4 -10 -10z"/>
<path d="M5650 1549 c0 -5 5 -7 10 -4 6 3 10 8 10 11 0 2 -4 4 -10 4 -5 0 -10
-5 -10 -11z"/>
<path d="M5510 1521 c0 -6 5 -13 10 -16 6 -3 10 1 10 9 0 9 -4 16 -10 16 -5 0
-10 -4 -10 -9z"/>
<path d="M5730 1510 c0 -5 5 -10 10 -10 6 0 10 5 10 10 0 6 -4 10 -10 10 -5 0
-10 -4 -10 -10z"/>
<path d="M4340 1499 c0 -5 5 -7 10 -4 6 3 10 8 10 11 0 2 -4 4 -10 4 -5 0 -10
-5 -10 -11z"/>
<path d="M4766 1475 c4 -8 10 -15 15 -15 5 0 9 7 9 15 0 8 -7 15 -15 15 -9 0
-12 -6 -9 -15z"/>
<path d="M5445 1480 c4 -6 11 -8 16 -5 14 9 11 15 -7 15 -8 0 -12 -5 -9 -10z"/>
<path d="M4426 1472 c-3 -6 -1 -14 5 -17 15 -10 25 3 12 16 -7 7 -13 7 -17 1z"/>
<path d="M4980 1450 c0 -5 5 -10 11 -10 5 0 7 5 4 10 -3 6 -8 10 -11 10 -2 0
-4 -4 -4 -10z"/>
<path d="M5015 1440 c3 -5 8 -10 11 -10 2 0 4 5 4 10 0 6 -5 10 -11 10 -5 0
-7 -4 -4 -10z"/>
<path d="M5650 1425 c-10 -12 -10 -15 4 -15 9 0 16 7 16 15 0 8 -2 15 -4 15
-2 0 -9 -7 -16 -15z"/>
<path d="M5212 1395 c0 -16 2 -22 5 -12 2 9 2 23 0 30 -3 6 -5 -1 -5 -18z"/>
<path d="M4810 1364 c0 -8 5 -12 10 -9 6 4 8 11 5 16 -9 14 -15 11 -15 -7z"/>
<path d="M5537 1374 c-4 -4 -7 -17 -7 -28 0 -19 1 -19 17 -3 12 11 14 20 7 27
-6 6 -13 7 -17 4z"/>
<path d="M5585 1370 c3 -5 8 -10 11 -10 2 0 4 5 4 10 0 6 -5 10 -11 10 -5 0
-7 -4 -4 -10z"/>
<path d="M4365 1350 c-3 -5 -1 -10 4 -10 6 0 11 5 11 10 0 6 -2 10 -4 10 -3 0
-8 -4 -11 -10z"/>
<path d="M5456 1351 c-4 -5 1 -8 9 -7 21 3 31 16 12 16 -9 0 -18 -4 -21 -9z"/>
<path d="M5207 1334 c-9 -10 2 -24 18 -24 9 0 12 6 9 15 -6 16 -17 19 -27 9z"/>
<path d="M4455 1320 c-7 -12 2 -12 30 0 19 8 19 9 -2 9 -12 1 -25 -3 -28 -9z"/>
<path d="M5030 1314 c0 -8 5 -12 10 -9 6 3 10 10 10 16 0 5 -4 9 -10 9 -5 0
-10 -7 -10 -16z"/>
<path d="M5165 1320 c-3 -5 -1 -18 4 -27 9 -15 10 -14 9 10 -3 30 -4 32 -13
17z"/>
<path d="M4569 1303 c-13 -16 -12 -17 4 -4 9 7 17 15 17 17 0 8 -8 3 -21 -13z"/>
<path d="M5310 1310 c0 -5 5 -10 10 -10 6 0 10 5 10 10 0 6 -4 10 -10 10 -5 0
-10 -4 -10 -10z"/>
<path d="M5530 1305 c0 -8 7 -15 15 -15 8 0 15 4 15 9 0 5 -7 11 -15 15 -9 3
-15 0 -15 -9z"/>
<path d="M5074 1285 c2 -17 7 -31 12 -33 15 -5 15 22 0 43 -13 18 -14 18 -12
-10z"/>
<path d="M5270 1285 c0 -8 2 -15 4 -15 2 0 6 7 10 15 3 8 1 15 -4 15 -6 0 -10
-7 -10 -15z"/>
<path d="M4900 1261 c0 -5 5 -13 10 -16 6 -3 10 -2 10 4 0 5 -4 13 -10 16 -5
3 -10 2 -10 -4z"/>
<path d="M5280 1250 c0 -5 5 -10 10 -10 6 0 10 5 10 10 0 6 -4 10 -10 10 -5 0
-10 -4 -10 -10z"/>
<path d="M4850 1219 c0 -5 5 -7 10 -4 6 3 10 8 10 11 0 2 -4 4 -10 4 -5 0 -10
-5 -10 -11z"/>
<path d="M4905 1220 c-3 -5 -1 -10 4 -10 6 0 11 5 11 10 0 6 -2 10 -4 10 -3 0
-8 -4 -11 -10z"/>
<path d="M4632 1208 c5 -15 28 -23 28 -10 0 5 -7 13 -16 16 -10 4 -14 1 -12
-6z"/>
<path d="M4745 1210 c-3 -5 -12 -7 -20 -3 -8 3 -15 0 -15 -6 0 -16 25 -13 40
4 7 8 10 15 7 15 -3 0 -8 -4 -12 -10z"/>
<path d="M4936 1133 c-3 -3 -3 -10 0 -14 7 -12 34 -11 34 0 0 11 -26 22 -34
14z"/>
</g>
</svg>
